<svg xmlns="http://www.w3.org/2000/svg" xmlns:svg="http://www.w3.org/2000/svg" xmlns:xlink="http://www.w3.org/1999/xlink" id="svg137" width="1087" height="447" version="1.1"><metadata id="metadata141"/><defs id="defs86"><linearGradient id="linearGradient5393"><stop id="stop5395" offset="0" style="stop-color:#fff"/><stop id="stop5397" offset="1" style="stop-color:#fff;stop-opacity:0"/></linearGradient><linearGradient id="linearGradient5399" x1="1109.556" x2="967.626" y1="41.785" y2="41.785" gradientTransform="matrix(1,0,0,1.1566265,0,-1.722893)" gradientUnits="userSpaceOnUse" xlink:href="#linearGradient5393"/></defs><rect id="rect7" width="1037.5" height="28" x="1" y="409" rx="3" ry="3" style="fill:#71d6e0"/><path id="path9" d="m 1086,423 -50,-14 v 28 z" style="fill:#71d6e0"/><text id="text11" x="537.93" y="429.692" xml:space="preserve" style="font-weight:600;font-size:18.75px;font-family:'Open Sans';fill:#5f5f5f">TIME</text><rect id="rect13" width="968" height="192" x="1" y="195" rx="5" ry="5.783" style="fill:#ededed;stroke-width:1.07546568"/><rect id="rect15" width="190" height="26" x="425" y="265" style="fill:#02d35f"/><rect id="rect17" width="190" height="26" x="155" y="317" style="fill:#02d35f"/><text id="text19" x="17.084" y="232.846" xml:space="preserve" style="font-weight:600;font-size:18.75px;font-family:'Open Sans';fill:#00c081">SLES 12</text><rect id="rect21" width="190" height="26" x="20" y="343" style="fill:#02d35f"/><rect id="rect23" width="55" height="52" x="155" y="317" style="opacity:.5;fill:#92ecba"/><rect id="rect25" width="190" height="26" x="290" y="291" style="fill:#02d35f"/><rect id="rect27" width="55" height="52" x="290" y="291" style="opacity:.5;fill:#92ecba"/><rect id="rect29" width="55" height="52" x="425" y="265" style="opacity:.5;fill:#92ecba"/><rect id="rect31" width="230" height="26" x="560" y="239" style="fill:#02d35f"/><rect id="rect33" width="55" height="52" x="560" y="239" style="opacity:.5;fill:#92ecba"/><rect id="rect37" width="190" height="2" x="155" y="341" style="fill:#a7a9ac;fill-opacity:.58823529"/><rect id="rect39" width="190" height="2" x="20" y="367" style="fill:#a7a9ac;fill-opacity:.58823529"/><rect id="rect41" width="190" height="2" x="290" y="315" style="fill:#a7a9ac;fill-opacity:.58823529"/><rect id="rect43" width="190" height="2" x="425" y="289" style="fill:#a7a9ac;fill-opacity:.58823529"/><rect id="rect45" width="574" height="192" x="510" y="11" rx="5" ry="5.783" style="fill:#dcddde;stroke-width:1.07546568"/><rect id="rect47" width="150" height="26" x="934" y="81" style="fill:#02d35f"/><rect id="rect49" width="190" height="26" x="664" y="133" style="fill:#02d35f"/><text id="text51" x="526.084" y="48.728" xml:space="preserve" style="font-weight:600;font-size:18.75px;font-family:'Open Sans';fill:#00c081">SLES 15</text><rect id="rect53" width="190" height="26" x="529" y="159" style="fill:#02d35f"/><rect id="rect55" width="55" height="52" x="664" y="133" style="opacity:.5;fill:#92ecba"/><rect id="rect57" width="190" height="26" x="799" y="107" style="fill:#02d35f"/><rect id="rect59" width="55" height="52" x="799" y="107" style="opacity:.5;fill:#92ecba"/><rect id="rect61" width="55" height="52" x="934" y="81" style="opacity:.5;fill:#92ecba"/><rect id="rect63" width="15" height="52" x="1069" y="55" style="opacity:.5;fill:#92ecba"/><rect id="rect65" width="190" height="2" x="664" y="157" style="fill:#a7a9ac;fill-opacity:.58823529"/><rect id="rect67" width="190" height="2" x="529" y="183" style="fill:#a7a9ac;fill-opacity:.58823529"/><rect id="rect69" width="190" height="2" x="799" y="131" style="fill:#a7a9ac;fill-opacity:.58823529"/><rect id="rect71" width="150" height="2" x="934" y="105" style="fill:#a7a9ac;fill-opacity:.58823529"/><circle id="circle73" cx="676" cy="146" r="18" style="fill:#00c081"/><text id="text77" x="661.952" y="152.848" xml:space="preserve" style="font-size:18.75px;font-family:'Open Sans';fill:#fff">S<tspan id="tspan75" style="letter-spacing:-1px">P</tspan>1</text><circle id="circle79" cx="811" cy="120" r="18" style="fill:#00c081"/><text id="text83" x="795.118" y="126.829" xml:space="preserve" style="font-size:18.75px;font-family:'Open Sans';fill:#fff">S<tspan id="tspan81" style="letter-spacing:-.5px">P</tspan>2</text><circle id="circle85" cx="541" cy="172" r="18" style="fill:#02a49c"/><text id="text87" x="527.441" y="178.867" xml:space="preserve" style="font-weight:600;font-size:18.75px;font-family:'Open Sans';fill:#fff">GA</text><circle id="circle89" cx="946" cy="94" r="18" style="fill:#00c081"/><text id="text93" x="930.164" y="100.809" xml:space="preserve" style="font-size:18.75px;font-family:'Open Sans';fill:#fff">S<tspan id="tspan91" style="letter-spacing:-.5px">P</tspan>3</text><path id="path95" d="m 1081,50 a 18,18 0 0 0 -18,18 18,18 0 0 0 18,18 18,18 0 0 0 3,-0.253906 V 50.271484 A 18,18 0 0 0 1081,50 Z" style="fill:#00c081"/><path id="path97" d="m 969,11 v 192 h 110 c 2.77,0 5,-2.57927 5,-5.78313 V 16.783135 C 1084,13.579276 1081.77,11 1079,11 Z" style="fill:url(#linearGradient5399);stroke-width:1.07546568"/><path id="path99" d="m 993.47461,111 c -2.4242,0 -4.27517,0.63928 -5.55469,1.91797 -1.2794,1.27869 -1.91992,3.11437 -1.91992,5.50781 0,2.36065 0.64052,4.21432 1.91992,5.5586 1.27952,1.34426 3.13049,2.01562 5.55469,2.01562 2.42431,0 4.27718,-0.67136 5.55664,-2.01562 1.31305,-1.37706 1.96875,-3.23074 1.96875,-5.5586 0,-2.29508 -0.6405,-4.09869 -1.91992,-5.41015 C 997.80056,111.67136 995.93256,111 993.47461,111 Z m 25.99999,0 c -2.4242,0 -4.2752,0.63928 -5.5547,1.91797 -1.2794,1.27869 -1.9199,3.11437 -1.9199,5.50781 0,2.36065 0.6405,4.21432 1.9199,5.5586 1.2795,1.34426 3.1305,2.01562 5.5547,2.01562 2.4243,0 4.2753,-0.67136 5.5547,-2.01562 1.3132,-1.37706 1.9707,-3.23074 1.9707,-5.5586 0,-2.29508 -0.6405,-4.09869 -1.9199,-5.41015 C 1023.8006,111.67136 1021.9326,111 1019.4746,111 Z m 26,0 c -2.4242,0 -4.2752,0.63928 -5.5547,1.91797 -1.2794,1.27869 -1.9199,3.11437 -1.9199,5.50781 0,2.36065 0.6405,4.21432 1.9199,5.5586 1.2795,1.34426 3.1305,2.01562 5.5547,2.01562 2.4243,0 4.2753,-0.67136 5.5547,-2.01562 1.3132,-1.37706 1.9707,-3.23074 1.9707,-5.5586 0,-2.29508 -0.6405,-4.09869 -1.9199,-5.41015 C 1049.8006,111.67136 1047.9325,111 1045.4746,111 Z" style="fill:#5f5f5f;fill-opacity:.75"/><circle id="circle101" cx="32" cy="356" r="18" style="fill:#02a49c"/><text id="text103" x="18.441" y="362.867" xml:space="preserve" style="font-weight:600;font-size:18.75px;font-family:'Open Sans';fill:#fff">GA</text><circle id="circle105" cx="167" cy="330" r="18" style="fill:#00c081"/><text id="text109" x="152.952" y="336.848" xml:space="preserve" style="font-size:18.75px;font-family:'Open Sans';fill:#fff">S<tspan id="tspan107" style="letter-spacing:-1px">P</tspan>1</text><circle id="circle111" cx="302" cy="304" r="18" style="fill:#00c081"/><text id="text115" x="286.118" y="310.829" xml:space="preserve" style="font-size:18.75px;font-family:'Open Sans';fill:#fff">S<tspan id="tspan113" style="letter-spacing:-.5px">P</tspan>2</text><circle id="circle123" cx="437" cy="278" r="18" style="fill:#00c081"/><text id="text127" x="421.164" y="284.809" xml:space="preserve" style="font-size:18.75px;font-family:'Open Sans';fill:#fff">S<tspan id="tspan125" style="letter-spacing:-.5px">P</tspan>3</text><rect id="rect129" width="178.785" height="36" x="170" y="221" rx="3" ry="3" style="fill:#5f5f5f"/><text id="text131" x="184.864" y="243.943" xml:space="preserve" style="font-size:18.75px;font-family:'Open Sans';fill:#00c081">6 month overlap</text><path id="path133" d="m 190.39243,257 v 54.83984 l -2,-0.83984 3.5,10 3.5,-9.8457 -2,0.75195 V 257 Z" style="fill:#5f5f5f"/><path id="path135" d="m 325.39244,257 v 28.83984 l -2,-0.83984 3.5,10 3.5,-9.8457 -2,0.75195 V 257 Z" style="fill:#5f5f5f"/><rect id="rect31-5" width="230" height="26" x="735" y="213" style="fill:#02d35f"/><rect id="rect35-2" width="230" height="2" x="735" y="237" style="fill:#a7a9ac;fill-opacity:.58823529"/><rect id="rect33-6" width="55" height="52" x="735" y="213" style="opacity:.5;fill:#92ecba"/><rect id="rect35" width="230" height="2" x="560" y="263" style="fill:#a7a9ac;fill-opacity:.58823529"/><circle id="circle117" cx="572" cy="252" r="18" style="fill:#00c081"/><text id="text121" x="555.803" y="258.809" xml:space="preserve" style="font-size:18.75px;font-family:'Open Sans';fill:#fff">S<tspan id="tspan119" style="letter-spacing:-.5px">P</tspan>4</text><circle id="circle117-9" cx="747" cy="226" r="18" style="fill:#00c081"/><text id="text121-1" x="730.802" y="232.809" xml:space="preserve" style="font-size:18.75px;font-family:'Open Sans';fill:#fff">S<tspan id="tspan119-2" style="letter-spacing:-.5px">P5</tspan></text></svg>