<svg xmlns="http://www.w3.org/2000/svg" xmlns:svg="http://www.w3.org/2000/svg" xmlns:xlink="http://www.w3.org/1999/xlink" id="svg191" width="1153" height="447" version="1.1"><metadata id="metadata195"/><defs id="defs86"><linearGradient id="linearGradient5393"><stop style="stop-color:#fff" id="stop5395" offset="0"/><stop style="stop-color:#fff;stop-opacity:0" id="stop5397" offset="1"/></linearGradient><linearGradient id="linearGradient5399" x1="1109.556" x2="967.626" y1="41.785" y2="41.785" gradientTransform="matrix(1,0,0,1.1566265,68,-1.72289)" gradientUnits="userSpaceOnUse" xlink:href="#linearGradient5393"/></defs><path style="fill:#71d6e0;stroke-width:1.03108311" id="rect7" d="M 4.1894531,409 C 2.4225269,409 1,410.338 1,412 v 22 c 0,1.662 1.4225269,3 3.1894531,3 H 1102 l 50,-14 -50,-14 z"/><text style="font-weight:600;font-size:18.75px;font-family:'Open Sans';fill:#5f5f5f" id="text11" x="537.93" y="429.692" xml:space="preserve">TIME</text><rect style="fill:#ededed;stroke-width:1.15785813" id="rect13" width="1122" height="192" x="1" y="195" rx="5.795" ry="5.783"/><rect style="fill:#02d35f" id="rect15" width="190" height="26" x="425" y="265"/><rect style="fill:#02d35f" id="rect17" width="190" height="26" x="155" y="317"/><text style="font-weight:600;font-size:18.75px;font-family:'Open Sans';fill:#00c081" id="text19" x="17.084" y="232.846" xml:space="preserve">SLES 12</text><rect style="fill:#02d35f" id="rect21" width="190" height="26" x="20" y="343"/><rect style="opacity:.5;fill:#92ecba" id="rect23" width="55" height="52" x="155" y="317"/><rect style="fill:#02d35f" id="rect25" width="190" height="26" x="290" y="291"/><rect style="opacity:.5;fill:#92ecba" id="rect27" width="55" height="52" x="290" y="291"/><rect style="opacity:.5;fill:#92ecba" id="rect29" width="55" height="52" x="425" y="265"/><rect style="fill:#02d35f;stroke-width:.90889329" id="rect31" width="190" height="26" x="560" y="239"/><rect style="opacity:.5;fill:#92ecba" id="rect33" width="55" height="52" x="560" y="239"/><rect style="fill:#a5efc6" id="rect35" width="160" height="26" x="210" y="343"/><rect style="fill:#a5efc6" id="rect37" width="160" height="26" x="345" y="317"/><rect style="fill:#a5efc6" id="rect39" width="160" height="26" x="480" y="291"/><rect style="fill:#a5efc6" id="rect41" width="160" height="26" x="615" y="265"/><rect style="fill:#a5efc6" id="rect43" width="160" height="26" x="750" y="239"/><rect style="fill:#a7a9ac;fill-opacity:.58823529;stroke-width:.94733095" id="rect45" width="350" height="2" x="560" y="263"/><rect style="fill:#a7a9ac;fill-opacity:.58823529" id="rect47" width="350" height="2" x="155" y="341"/><rect style="fill:#a7a9ac;fill-opacity:.58823529" id="rect49" width="350" height="2" x="20" y="367"/><rect style="fill:#a7a9ac;fill-opacity:.58823529" id="rect51" width="350" height="2" x="290" y="315"/><rect style="fill:#a7a9ac;fill-opacity:.58823529" id="rect53" width="350" height="2" x="425" y="289"/><rect style="fill:#5f5f5f" id="rect55" width="500" height="36" x="406" y="362" rx="3" ry="3"/><text style="font-size:18.75px;font-family:'Open Sans';fill:#00c081" id="text57" x="425.209" y="385.114" xml:space="preserve">Long Term Service Pack Support (LTSS), up to 3 years</text><path style="fill:#5f5f5f;stroke:none" id="path59" d="m 419.67562,392 -47.49269,-27.41992 -0.27268,2.15197 -6.91025,-8.03109 10.27663,1.89177 -1.65121,1.35607 47.5502,27.45312 z"/><path style="fill:#5f5f5f;stroke:none" id="path61" d="M 427,362 V 338.16016 L 425,339 l 3.5,-10 3.5,9.84571 -2,-0.75196 V 362 Z"/><rect style="fill:#dcddde;stroke-width:1.13738668" id="rect67" width="642" height="192" x="510" y="11" rx="5.592" ry="5.783"/><rect style="fill:#02d35f;stroke-width:1.12546289" id="rect69" width="190" height="26" x="934" y="81"/><rect style="fill:#02d35f" id="rect71" width="190" height="26" x="664" y="133"/><text style="font-weight:600;font-size:18.75px;font-family:'Open Sans';fill:#00c081" id="text73" x="526.084" y="48.728" xml:space="preserve">SLES 15</text><rect style="fill:#02d35f" id="rect75" width="190" height="26" x="529" y="159"/><rect style="opacity:.5;fill:#92ecba" id="rect77" width="55" height="52" x="664" y="133"/><rect style="fill:#02d35f" id="rect79" width="190" height="26" x="799" y="107"/><rect style="opacity:.5;fill:#92ecba" id="rect81" width="55" height="52" x="799" y="107"/><rect style="opacity:.5;fill:#92ecba" id="rect83" width="55" height="52" x="934" y="81"/><path style="fill:#fd9a2b;stroke:none" id="path85" d="M 331,334 V 311.16016 L 329,312 l 3.5,-10 3.5,9.84571 -2,-0.75196 V 334 Z"/><rect style="fill:#a5efc6" id="rect89" width="160" height="26" x="719" y="159"/><rect style="fill:#a5efc6" id="rect91" width="160" height="26" x="854" y="133"/><rect style="fill:#a5efc6;stroke-width:1.29777133" id="rect93" width="160" height="26" x="989" y="-133" transform="scale(1,-1)"/><rect style="fill:#a7a9ac;fill-opacity:.58823529" id="rect95" width="350" height="2" x="664" y="157"/><rect style="fill:#a7a9ac;fill-opacity:.58823529" id="rect97" width="350" height="2" x="529" y="183"/><rect style="fill:#a7a9ac;fill-opacity:.58823529;stroke-width:1.10818326" id="rect99" width="350" height="2" x="799" y="131"/><rect style="fill:#a5efc6;stroke-width:.54289669" id="rect93-2" width="28" height="26" x="1124" y="81"/><circle style="fill:#00c081" id="circle103" cx="676" cy="146" r="18"/><text style="font-size:18.75px;font-family:'Open Sans';fill:#fff" id="text107" x="661.952" y="152.848" xml:space="preserve">S<tspan style="letter-spacing:-1px" id="tspan105">P</tspan>1</text><circle style="fill:#00c081" id="circle109" cx="811" cy="120" r="18"/><text style="font-size:18.75px;font-family:'Open Sans';fill:#fff" id="text113" x="795.118" y="126.829" xml:space="preserve">S<tspan style="letter-spacing:-.5px" id="tspan111">P</tspan>2</text><circle style="fill:#02a49c" id="circle115" cx="541" cy="172" r="18"/><text style="font-weight:600;font-size:18.75px;font-family:'Open Sans';fill:#fff" id="text117" x="527.441" y="178.867" xml:space="preserve">GA</text><circle style="fill:#00c081" id="circle119" cx="946" cy="94" r="18"/><text style="font-size:18.75px;font-family:'Open Sans';fill:#fff" id="text123" x="930.164" y="100.809" xml:space="preserve">S<tspan style="letter-spacing:-.5px" id="tspan121">P</tspan>3</text><path style="fill:#fd9a2b;stroke:none" id="path127" d="m 20,52.999992 v -12.41211 l -2,0.83984 3.5,-10 3.5,9.84571 -2,-0.75196 v 12.47852 z"/><text style="font-size:18.75px;font-family:'Open Sans';text-align:start;text-anchor:start;fill:#000" id="text129" x="34.297" y="48.746" xml:space="preserve">Update path</text><path style="fill:#fd9a2b;stroke:none" id="path131" d="M 601,282 V 259.16016 L 599,260 l 3.5,-10 3.5,9.84571 -2,-0.75196 V 282 Z"/><path style="fill:#fd9a2b;stroke:none" id="path133" d="M 466,308 V 285.16016 L 464,286 l 3.5,-10 3.5,9.84571 -2,-0.75196 V 308 Z"/><path style="fill:#fd9a2b;stroke:none" id="path135" d="M 840,150 V 127.16016 L 838,128 l 3.5,-10 3.5,9.84571 -2,-0.75196 V 150 Z"/><path style="fill:#fd9a2b;stroke:none" id="path137" d="M 705,176 V 153.16016 L 703,154 l 3.5,-10 3.5,9.84571 -2,-0.75196 V 176 Z"/><path style="fill:#fd9a2b;stroke:none" id="path141" d="M 196,360 V 337.16016 L 194,338 l 3.5,-10 3.5,9.84571 -2,-0.75196 V 360 Z"/><path style="fill:#de0080;fill-opacity:1" id="path147" d="M 685,256 V 161.16016 L 683,162 l 3.5,-10 3.5,9.84571 -2,-0.75196 V 256 Z"/><path style="fill:#fd9a2b;stroke-width:1.00073278" id="path149" d="m 593.49478,250 -3.50513,10 2.00293,-0.83984 c 0,26.27434 -9.96383,48.62586 -26.89484,58.66406 C 548.15544,327.86912 524.40738,331 497,331 v 3 c 27.61771,0 51.85768,-3.0654 69.66448,-13.61523 18.74255,-11.10423 28.33259,-34.5554 28.33259,-61.29102 L 597,259.8457 Z"/><path style="fill:#fd9a2b" id="path151" d="M 865,176 V 127.16016 L 863,128 l 3.5,-10 3.5,9.84571 -2,-0.75196 V 176 Z"/><path style="fill:#fd9a2b" id="path153" d="M 491,334 V 285.16016 L 489,286 l 3.5,-10 3.5,9.84571 -2,-0.75196 V 334 Z"/><path style="fill:#fd9a2b" id="path155" d="M 626,308 V 259.16016 L 624,260 l 3.5,-10 3.5,9.84571 -2,-0.75196 V 308 Z"/><path style="fill:#fd9a2b" id="path157" d="M 356,360 V 311.16016 L 354,312 l 3.5,-10 3.5,9.84571 -2,-0.75196 V 360 Z"/><circle style="fill:#02a49c" id="circle159" cx="32" cy="356" r="18"/><text style="font-weight:600;font-size:18.75px;font-family:'Open Sans';fill:#fff" id="text161" x="18.441" y="362.867" xml:space="preserve">GA</text><circle style="fill:#00c081" id="circle163" cx="167" cy="330" r="18"/><text style="font-size:18.75px;font-family:'Open Sans';fill:#fff" id="text167" x="152.952" y="336.848" xml:space="preserve">S<tspan style="letter-spacing:-1px" id="tspan165">P</tspan>1</text><circle style="fill:#00c081" id="circle169" cx="302" cy="304" r="18"/><text style="font-size:18.75px;font-family:'Open Sans';fill:#fff" id="text173" x="286.118" y="310.829" xml:space="preserve">S<tspan style="letter-spacing:-.5px" id="tspan171">P</tspan>2</text><circle style="fill:#00c081" id="circle175" cx="572" cy="252" r="18"/><text style="font-size:18.75px;font-family:'Open Sans';fill:#fff" id="text179" x="555.803" y="258.809" xml:space="preserve">S<tspan style="letter-spacing:-.5px" id="tspan177">P</tspan>4</text><circle style="fill:#00c081" id="circle181" cx="437" cy="278" r="18"/><text style="font-size:18.75px;font-family:'Open Sans';fill:#fff" id="text185" x="421.164" y="284.809" xml:space="preserve">S<tspan style="letter-spacing:-.5px" id="tspan183">P</tspan>3</text><path style="fill:#de0080;stroke:none;fill-opacity:1" id="path189" d="M 675,282 V 164.16016 L 673,165 l 3.5,-10 3.5,9.84571 -2,-0.75196 V 282 Z"/><rect style="fill:#02d35f" id="rect31-6" width="230" height="26" x="695" y="213"/><rect style="opacity:.5;fill:#92ecba" id="rect33-2" width="55" height="52" x="695" y="213"/><rect style="fill:#a5efc6" id="rect43-9" width="160" height="26" x="925" y="213"/><rect style="fill:#a7a9ac;fill-opacity:.58823529" id="rect45-1" width="390" height="2" x="695" y="237"/><circle style="fill:#00c081" id="circle175-2" cx="707" cy="226" r="18"/><text style="font-size:18.75px;font-family:'Open Sans';fill:#fff" id="text179-7" x="690.803" y="232.809" xml:space="preserve">S<tspan style="letter-spacing:-.5px" id="tspan177-0">P5</tspan></text><rect style="fill:#02d35f;stroke-width:.74386382" id="rect69-6" width="83" height="26" x="1069" y="55"/><rect style="opacity:.5;fill:#92ecba" id="rect83-1" width="55" height="52" x="1069" y="55"/><rect style="fill:#a7a9ac;fill-opacity:.58823529;stroke-width:1.2055428" id="rect101" width="218" height="2" x="934" y="105"/><circle style="fill:#00c081" id="circle119-8" cx="1081" cy="68" r="18"/><path style="fill:#fd9a2b;stroke:none" id="path139" d="M 975,124 V 101.16016 L 973,102 l 3.5,-10 3.5,9.84571 -2,-0.75196 V 124 Z"/><path style="fill:#5f5f5f;stroke:none" id="path187" d="M 902,287 V 234.16016 L 900,235 l 3.5,-10 3.5,9.84571 -2,-0.75196 V 287 Z"/><path style="fill:#fd9a2b;stroke:none" id="path131-9" d="M 736,256 V 233.16016 L 734,234 l 3.5,-10 3.5,9.84571 -2,-0.75196 V 256 Z"/><path style="fill:#fd9a2b;stroke-width:1.00073278" id="path149-0" d="m 728.49478,224 -3.50513,10 2.00293,-0.8398 c 0,26.2743 -9.96383,48.62582 -26.89484,58.66402 C 683.15544,301.86912 659.40738,305 632,305 v 3 c 27.61771,0 51.85768,-3.0654 69.66448,-13.61523 18.74255,-11.10423 28.33259,-34.5554 28.33259,-61.29097 L 732,233.8457 Z"/><rect style="fill:#5f5f5f;stroke-width:1.02022684" id="rect63" width="346.26" height="54" x="730.37" y="285.629" rx="2.082" ry="4.5"/><g id="g4289" transform="translate(1.5258789e-5,-1.5020294)"><text id="text65" x="751.683" y="309.462" xml:space="preserve" style="font-size:18.75px;font-family:'Open Sans';fill:#00c081">Last Service Pack: General Support</text><text id="text65-2" x="818.177" y="328.541" xml:space="preserve" style="font-size:18.75px;font-family:'Open Sans';fill:#00c081">up to GA + 10 years</text></g><path style="fill:url(#linearGradient5399);stroke-width:1.07546568" id="path143" d="m 1037,11 v 192 h 110 c 2.77,0 5,-2.57928 5,-5.78313 V 16.78313 C 1152,13.57928 1149.77,11 1147,11 Z"/><path style="fill:#5f5f5f;fill-opacity:.75" id="path145" d="m 1061.4746,99.5 c -2.4242,0 -4.2752,0.63928 -5.5547,1.91797 -1.2794,1.27869 -1.9199,3.11437 -1.9199,5.50781 0,2.36065 0.6405,4.21432 1.9199,5.55859 1.2795,1.34427 3.1305,2.01563 5.5547,2.01563 2.4243,0 4.2772,-0.67136 5.5566,-2.01563 1.3131,-1.37706 1.9688,-3.23073 1.9688,-5.55859 0,-2.29508 -0.6405,-4.09869 -1.9199,-5.41016 -1.2795,-1.34426 -3.1475,-2.01562 -5.6055,-2.01562 z m 26,0 c -2.4242,0 -4.2752,0.63928 -5.5547,1.91797 -1.2794,1.27869 -1.9199,3.11437 -1.9199,5.50781 0,2.36065 0.6405,4.21432 1.9199,5.55859 1.2795,1.34427 3.1305,2.01563 5.5547,2.01563 2.4243,0 4.2753,-0.67136 5.5547,-2.01563 1.3132,-1.37706 1.9707,-3.23073 1.9707,-5.55859 0,-2.29508 -0.6405,-4.09869 -1.9199,-5.41016 -1.2795,-1.34426 -3.1475,-2.01562 -5.6055,-2.01562 z m 26,0 c -2.4242,0 -4.2752,0.63928 -5.5547,1.91797 -1.2794,1.27869 -1.9199,3.11437 -1.9199,5.50781 0,2.36065 0.6405,4.21432 1.9199,5.55859 1.2795,1.34427 3.1305,2.01563 5.5547,2.01563 2.4243,0 4.2753,-0.67136 5.5547,-2.01563 1.3132,-1.37706 1.9707,-3.23073 1.9707,-5.55859 0,-2.29508 -0.6405,-4.09869 -1.9199,-5.41016 -1.2795,-1.34426 -3.1476,-2.01562 -5.6055,-2.01562 z"/><path style="fill:#de0080;fill-opacity:1" id="path147-3" d="M 539,282 V 190.16016 L 537,191 l 3.5,-10 3.5,9.84571 -2,-0.75196 V 282 Z"/><path style="fill:#de0080;fill-opacity:1" id="path147-36" d="M 638,256 V 179.16016 L 636,180 l 3.5,-10 3.5,9.84571 -2,-0.75196 V 256 Z"/><path style="fill:#de0080;fill-opacity:1" id="path147-36-7" d="M 761,230 V 153.16016 L 759,154 l 3.5,-10 3.5,9.84571 -2,-0.75196 V 230 Z"/><path style="fill:#de0080;stroke:none;fill-opacity:1" id="path127-5" d="M 20,84.39699 V 71.98488 l -2,0.83984 3.5,-10 3.5,9.84571 -2,-0.75196 v 12.47852 z"/><text style="font-size:18.75px;font-family:'Open Sans';text-align:start;text-anchor:start;fill:#000" id="text129-6" x="34.297" y="80.143" xml:space="preserve">Upgrade path</text></svg>