<svg xmlns="http://www.w3.org/2000/svg" xmlns:svg="http://www.w3.org/2000/svg" id="svg2" width="685" height="590" version="1.1" viewBox="48 48 9186.893 7866.667"><metadata id="metadata97"/><rect id="rect6" width="9160.069" height="5606.016" x="61.412" y="26.58" rx="0" style="fill:#ededed;stroke:#02a49c;stroke-width:26.82304192;stroke-linecap:butt;stroke-linejoin:miter"/><rect id="rect12" width="3269.823" height="2263.959" x="324.23" y="1630.551" rx="0" style="fill:#dcddde;stroke:#000;stroke-width:15.99999905;stroke-linecap:butt;stroke-linejoin:miter"/><rect id="rect16" width="3326.057" height="788.691" x="1148.77" y="7123.861" rx="0" style="fill:#dcddde;stroke:#0007b0;stroke-width:26.82304192;stroke-linecap:butt;stroke-linejoin:miter"/><rect id="rect20" width="1727.498" height="520.461" x="1095.393" y="2059.73" rx="0" style="fill:#00c081;stroke:#000;stroke-width:16;stroke-linecap:butt;stroke-linejoin:miter"/><polyline id="polyline22" points="4677 3165 6708 3165" transform="translate(-268.23042,-549.87522)" style="fill:none;stroke:#000;stroke-width:16;stroke-linecap:butt;stroke-linejoin:miter"/><polyline id="polyline24" points="4677 3212 6708 3212" transform="translate(-268.23042,-549.87522)" style="fill:none;stroke:#000;stroke-width:16;stroke-linecap:butt;stroke-linejoin:miter"/><polyline id="polyline26" points="4677 3212 6708 3212" transform="translate(-268.23042,-549.87522)" style="fill:none;stroke:#000;stroke-width:16;stroke-linecap:butt;stroke-linejoin:miter"/><rect id="rect28" width="2263.959" height="2263.959" x="4347.686" y="1630.551" rx="0" style="fill:#dcddde;stroke:#000;stroke-width:16;stroke-linecap:butt;stroke-linejoin:miter"/><rect id="rect30" width="1459.267" height="520.461" x="458.346" y="3239.955" rx="0" style="fill:#00c081;stroke:#000;stroke-width:16;stroke-linecap:butt;stroke-linejoin:miter"/><polyline id="polyline44" points="8267 1275 8267 1952" transform="translate(-408.65437,-281.64522)" style="fill:none;stroke:#000;stroke-width:20.11728096;stroke-linecap:butt;stroke-linejoin:miter"/><polygon id="polygon46" points="8314 1961 8220 1961 8220 1961 8267 2087" transform="translate(-408.65437,-281.64522)" style="fill:#000;stroke:#000;stroke-width:16;stroke-miterlimit:8"/><polyline id="polyline48" points="3023 4062 3023 5448" transform="matrix(0.55704232,0,0,0.55704232,1047.2844,1249.4174)" style="fill:none;stroke:#000;stroke-width:36.11445999;stroke-linecap:butt;stroke-linejoin:miter"/><polygon id="polygon50" points="2976 5457 2976 5457 3023 5583 3070 5457" transform="translate(-294.76081,-1166.8042)" style="fill:#000;stroke:#000;stroke-width:16;stroke-miterlimit:8"/><polygon id="polygon54" points="2243 6000 2243 5905 2243 5905 2117 5952" transform="translate(-303.79308,-1219.624)" style="fill:#000;stroke:#000;stroke-width:16;stroke-miterlimit:8"/><path style="fill:none;fill-rule:evenodd;stroke:#000;stroke-width:20.11728096;stroke-linecap:butt;stroke-linejoin:miter;stroke-opacity:1" id="path4417" d="m 7273.6272,2336.7802 -3291.2212,12.6585 0,2383.1448 -2341.8305,0"/><polygon id="polygon58" points="4038 5858 4038 5858 3912 5905 4038 5952" transform="translate(-293.79613,-1172.0811)" style="fill:#000;stroke:#000;stroke-width:16;stroke-miterlimit:8"/><rect id="rect32-5" width="1995.728" height="520.461" x="4481.802" y="3239.955" rx="0" style="fill:#00c081;stroke:#000;stroke-width:16;stroke-linecap:butt;stroke-linejoin:miter"/><polygon id="polygon62" points="7346 2929 7346 2929 7472 2881 7346 2834" transform="translate(-298.82545,-542.44882)" style="fill:#000;stroke:#000;stroke-width:16;stroke-miterlimit:8"/><polyline id="polyline76" points="3496 6629 3496 10094" transform="matrix(0.45931763,0,0,0.45931763,1571.361,2169.1408)" style="fill:none;stroke:#000;stroke-width:87.59638214;stroke-linecap:butt;stroke-linejoin:miter"/><polygon id="polygon78" points="3401 10087 3496 10339 3590 10087 3401 10087" transform="translate(-318.86459,-3288.5071)" style="fill:#000;stroke:#000;stroke-width:48;stroke-miterlimit:8"/><polygon id="polygon80" points="3590 6637 3496 6385 3401 6637 3590 6637" transform="translate(-318.86459,-1357.2506)" style="fill:#000;stroke:#000;stroke-width:48;stroke-miterlimit:8"/><rect id="rect32-5-0" width="1995.728" height="520.461" x="4481.802" y="2649.843" rx="0" style="fill:#00c081;stroke:#000;stroke-width:16;stroke-linecap:butt;stroke-linejoin:miter"/><polyline id="polyline82" points="3496 6944 9165 6944 9165 1526" transform="matrix(0.97129159,0,0,0.75124723,-194.34608,214.81728)" style="fill:none;stroke:#000;stroke-width:47.10131454;stroke-linecap:butt;stroke-linejoin:miter"/><polygon id="polygon84" points="9070 1534 9259 1534 9259 1534 9165 1282" transform="translate(-455.99171,-120.70722)" style="fill:#000;stroke:#000;stroke-width:48;stroke-miterlimit:8"/><polyline id="polyline86" points="2834 10205 2834 6565" transform="matrix(0.46096863,0,0,0.46096863,1158.1162,2172.8266)" style="fill:none;stroke:#000;stroke-width:58.18843079;stroke-linecap:butt;stroke-linejoin:miter"/><polygon id="polygon88" points="2904 6566 2834 6377 2763 6566 2904 6566" transform="translate(-369.49877,-1369.9091)" style="fill:#000;stroke:#000;stroke-width:32;stroke-miterlimit:8"/><polygon id="polygon90" points="2763 10204 2763 10204 2834 10393 2904 10204" transform="translate(-369.49877,-3327.9886)" style="fill:#000;stroke:#000;stroke-width:32;stroke-miterlimit:8"/><rect id="rect8" width="1459.267" height="788.691" x="7506.712" y="311.955" rx="0" style="fill:#dcddde;stroke:#000;stroke-width:16;stroke-linecap:butt;stroke-linejoin:miter"/><text style="text-anchor:middle" id="text96" x="8236.161" y="872.417" font-size="189" font-style="normal" font-weight="bold"><tspan id="tspan4263" style="font-style:normal;font-variant:normal;font-weight:600;font-stretch:normal;font-family:'Open Sans'">applications</tspan></text><text style="text-anchor:middle" id="text98" x="8236.346" y="636.416" font-size="189" font-style="normal" font-weight="bold"><tspan id="tspan4261" style="font-style:normal;font-variant:normal;font-weight:600;font-stretch:normal;font-size:201px;font-family:'Open Sans'">kerberized</tspan></text><text style="text-anchor:middle" id="text100" x="1182.331" y="3542.424" font-size="189" font-style="normal" font-weight="bold"><tspan id="tspan4255" style="font-style:normal;font-variant:normal;font-weight:600;font-stretch:normal;font-size:201px;font-family:'Open Sans'">nss_compat</tspan></text><text style="text-anchor:middle" id="text104" x="1959.142" y="2395.401" font-size="189" font-style="normal" font-weight="bold"><tspan id="tspan4253" style="font-style:normal;font-variant:normal;font-weight:600;font-stretch:normal;font-size:201px;font-family:'Open Sans'">nscd</tspan></text><text style="text-anchor:middle" id="text112" x="1954.083" y="1912.539" font-size="215" font-style="normal" font-weight="bold"><tspan id="tspan4251" style="font-style:normal;font-variant:normal;font-weight:600;font-stretch:normal;font-size:201px;font-family:'Open Sans'">NSS</tspan></text><text style="text-anchor:middle" id="text114" x="5479.617" y="1912.784" font-size="215" font-style="normal" font-weight="bold"><tspan id="tspan4237" style="font-style:normal;font-variant:normal;font-weight:600;font-stretch:normal;font-size:201px;font-family:'Open Sans'">PAM</tspan></text><text style="text-anchor:middle" id="text120" x="2814.685" y="7456.639" font-size="215" font-style="normal" font-weight="bold"><tspan id="tspan4205" style="font-style:normal;font-variant:normal;font-weight:600;font-stretch:normal;font-size:201px;font-family:'Open Sans'">Windows DC</tspan></text><text style="text-anchor:middle" id="text122" x="2811.798" y="7684.29" font-size="215" font-style="normal" font-weight="bold"><tspan id="tspan4203" style="font-style:normal;font-variant:normal;font-weight:400;font-stretch:normal;font-size:201px;font-family:'Open Sans'">(Active Directory)</tspan></text><text style="text-anchor:middle" id="text126" x="3759.185" y="6300.421" font-size="215" font-style="normal" font-weight="bold"><tspan id="tspan4211" style="font-style:normal;font-variant:normal;font-weight:400;font-stretch:normal;font-size:201px;font-family:'Open Sans'">Kerberos</tspan></text><text style="text-anchor:middle" id="text130" x="1768.432" y="6299.667" font-size="189" font-style="normal" font-weight="bold"><tspan id="tspan4207" style="font-style:normal;font-variant:normal;font-weight:400;font-stretch:normal;font-size:201px;font-family:'Open Sans'">and various</tspan></text><text style="text-anchor:middle" id="text134" x="1589.557" y="6076.471" font-size="189" font-style="normal" font-weight="bold"><tspan id="tspan4209" style="font-style:normal;font-variant:normal;font-weight:400;font-stretch:normal;font-size:201px;font-family:'Open Sans'">LDAP, Kerberos</tspan></text><rect id="rect32-5-05" width="1995.728" height="520.461" x="4481.802" y="2059.73" rx="0" style="fill:#00c081;stroke:#000;stroke-width:16;stroke-linecap:butt;stroke-linejoin:miter"/><text style="text-anchor:middle" id="text142" x="5479.62" y="2369.059" font-size="189" font-style="normal" font-weight="bold"><tspan id="tspan4239" style="font-style:normal;font-variant:normal;font-weight:600;font-stretch:normal;font-size:201px;font-family:'Open Sans'">pam_winbind</tspan></text><text style="text-anchor:middle" id="text144" x="5474.267" y="3549.284" font-size="189" font-style="normal" font-weight="bold"><tspan id="tspan4243" style="font-style:normal;font-variant:normal;font-weight:600;font-stretch:normal;font-size:201px;font-family:'Open Sans'">pam_mkhomedir</tspan></text><text style="font-style:normal;font-weight:700;font-size:189px;text-anchor:middle" id="text146" x="5475.282" y="2959.172" font-size="189" font-style="normal" font-weight="bold"><tspan id="tspan4241" style="font-style:normal;font-variant:normal;font-weight:600;font-stretch:normal;font-size:201px;font-family:'Open Sans'">pam_unix</tspan></text><text style="text-anchor:middle" id="text130-5" x="1703.257" y="6538.161" font-size="189" font-style="normal" font-weight="bold"><tspan id="tspan4207-0" style="font-style:normal;font-variant:normal;font-weight:400;font-stretch:normal;font-size:201px;font-family:'Open Sans'">MS protocols</tspan></text><rect id="rect10" width="1325.152" height="989.864" x="7195.77" y="1834.931" rx="0" style="fill:#fff;stroke:#000;stroke-width:16;stroke-linecap:butt;stroke-linejoin:miter"/><text style="text-anchor:middle" id="text106" x="7853.09" y="2175.448" font-size="189" font-style="normal" font-weight="bold"><tspan id="tspan4235" style="font-style:normal;font-variant:normal;font-weight:600;font-stretch:normal;font-size:201px;font-family:'Open Sans'">Kerberos</tspan></text><text style="text-anchor:middle" id="text108" x="7860.654" y="2404.803" font-size="189" font-style="normal" font-weight="bold"><tspan id="tspan4233" style="font-style:normal;font-variant:normal;font-weight:600;font-stretch:normal;font-size:201px;font-family:'Open Sans'">credential</tspan></text><text style="text-anchor:middle" id="text110" x="7857.265" y="2635.159" font-size="189" font-style="normal" font-weight="bold"><tspan id="tspan4231" style="font-style:normal;font-variant:normal;font-weight:600;font-stretch:normal;font-size:201px;font-family:'Open Sans'">cache</tspan></text><rect id="rect14" width="1459.267" height="520.461" x="2134.786" y="4448.348" rx="0" style="fill:#00c081;stroke:#000;stroke-width:15.99999905;stroke-linecap:butt;stroke-linejoin:miter"/><text style="text-anchor:middle" id="text118" x="2871.688" y="4779.453" font-size="189" font-style="normal" font-weight="bold"><tspan id="tspan4259" style="font-style:normal;font-variant:normal;font-weight:600;font-stretch:normal;font-size:201px;font-family:'Open Sans'">winbindd</tspan></text><rect id="rect34" width="1459.267" height="520.461" x="324.23" y="4447.617" rx="0" style="fill:#fff;stroke:#000;stroke-width:16;stroke-linecap:butt;stroke-linejoin:miter"/><text style="text-anchor:middle" id="text116" x="1052.783" y="4779.23" font-size="189" font-style="normal" font-weight="bold"><tspan id="tspan4257" style="font-style:normal;font-variant:normal;font-weight:600;font-stretch:normal;font-size:201px;font-family:'Open Sans'">offline cache</tspan></text><rect id="rect32" width="1459.267" height="520.461" x="2001.59" y="3239.955" rx="0" style="fill:#00c081;stroke:#000;stroke-width:16;stroke-linecap:butt;stroke-linejoin:miter"/><text style="text-anchor:middle" id="text102" x="2731.223" y="3557.263" font-size="189" font-style="normal" font-weight="bold"><tspan id="tspan4245" style="font-style:normal;font-variant:normal;font-weight:600;font-stretch:normal;font-family:'Open Sans'">nss_winbind</tspan></text><polyline id="polyline48-5" points="3023 4062 3023 5448" transform="matrix(0.27501768,0.15878154,-0.15878154,0.27501768,1513.4057,1130.1577)" style="fill:none;stroke:#000;stroke-width:63.34893417;stroke-linecap:butt;stroke-linejoin:miter"/><polygon id="polygon50-2" points="3023 5583 3070 5457 2976 5457 2976 5457" transform="matrix(0.8660254,0.5,-0.5,0.8660254,1590.2451,-3134.914)" style="fill:#000;stroke:#000;stroke-width:16;stroke-miterlimit:8"/><polygon id="polygon50-2-3" points="2976 5457 3023 5583 3070 5457 2976 5457" transform="matrix(0.8660254,0.5,0.5,-0.8660254,-3651.8474,5944.6565)" style="fill:#000;stroke:#000;stroke-width:16;stroke-miterlimit:8"/><polyline id="polyline48-5-9" points="3023 4062 3023 5448" transform="matrix(-0.27501768,0.15878154,0.15878154,0.27501768,2404.8775,1130.1577)" style="fill:none;stroke:#000;stroke-width:63.34893417;stroke-linecap:butt;stroke-linejoin:miter"/><polygon id="polygon50-2-0" points="2976 5457 2976 5457 3023 5583 3070 5457" transform="matrix(-0.86602537,0.50000001,0.50000001,0.86602537,2328.038,-3134.9139)" style="fill:#000;stroke:#000;stroke-width:16;stroke-miterlimit:8"/><polygon id="polygon50-2-3-2" points="3070 5457 2976 5457 2976 5457 3023 5583" transform="matrix(-0.86602537,0.50000001,-0.50000001,-0.86602537,7570.1306,5944.6563)" style="fill:#000;stroke:#000;stroke-width:16;stroke-miterlimit:8"/><polyline id="polyline40" points="5244 1275 5244 2000" transform="matrix(0.60104412,0,0,0.60104412,2327.7905,263.78328)" style="fill:none;stroke:#000;stroke-width:33.47055817;stroke-linecap:butt;stroke-linejoin:miter"/><polygon id="polygon42" points="5291 2008 5196 2008 5196 2008 5244 2134" transform="translate(233.16115,-534.12852)" style="fill:#000;stroke:#000;stroke-width:16;stroke-miterlimit:8"/><polyline id="polyline40-2" points="5244 1275 5244 2000" transform="matrix(0.60104415,0,0,0.60104415,-1192.7338,263.78328)" style="fill:none;stroke:#000;stroke-width:33.47055435;stroke-linecap:butt;stroke-linejoin:miter"/><polygon id="polygon42-6" points="5196 2008 5196 2008 5244 2134 5291 2008" transform="translate(-3287.3631,-534.12862)" style="fill:#000;stroke:#000;stroke-width:16;stroke-miterlimit:8"/><rect id="rect18" width="4007.456" height="788.691" x="1715.675" y="311.955" rx="0" style="fill:#dcddde;stroke:#000;stroke-width:16;stroke-linecap:butt;stroke-linejoin:miter"/><text style="text-anchor:middle" id="text92" x="3719.357" y="872.555" font-size="189" font-style="normal" font-weight="bold"><tspan id="tspan4247" style="font-style:normal;font-variant:normal;font-weight:400;font-stretch:normal;font-size:201px;font-family:'Open Sans'">(gdm, kdm, login)</tspan></text><text style="text-anchor:middle" id="text94" x="3714.466" y="635.315" font-size="189" font-style="normal" font-weight="bold"><tspan id="tspan4249" style="font-style:normal;font-variant:normal;font-weight:600;font-stretch:normal;font-family:'Open Sans'">PAM-aware applications</tspan></text></svg>