<svg xmlns="http://www.w3.org/2000/svg" xmlns:svg="http://www.w3.org/2000/svg" id="svg2" width="577.285" height="641.272" preserveAspectRatio="xMidYMid" version="1.2" viewBox="0 0 15273.999 16967.001" xml:space="preserve" style="fill-rule:evenodd;stroke-width:28.22200012;stroke-linejoin:round"><metadata id="metadata611"/><defs id="defs4" class="ClipPathGroup"><clipPath id="presentation_clip_path" clipPathUnits="userSpaceOnUse"><rect id="rect7" width="21000" height="25000" x="0" y="0"/></clipPath></defs><g id="g151" class="SlideGroup" transform="translate(-2852,-4329)"><g id="g153"><g id="container-id1"><g id="id1" class="Slide" clip-path="url(#presentation_clip_path)"><g id="g157" class="Page"><g id="g159" class="Group"><g id="g161" class="com.sun.star.drawing.CustomShape"><g id="id3"><rect id="rect164" width="3002" height="892" x="14625" y="6455" class="BoundingBox" style="fill:none;stroke:none"/><path id="path166" d="m 17520,6455 0,0 c -2794,0 -2794,0 -2794,0 -57,0 -101,52 -101,112 0,662 0,662 0,662 0,60 44,112 101,112 2794,0 2794,0 2794,0 57,0 101,-52 101,-112 0,-662 0,-662 0,-662 0,-60 -44,-112 -101,-112 l 0,0 z m 12,774 0,0 c 0,16 -8,28 -12,28 -2794,0 -2794,0 -2794,0 -8,0 -16,-12 -16,-28 0,-662 0,-662 0,-662 0,-16 8,-24 16,-24 2794,0 2794,0 2794,0 4,0 12,8 12,24 l 0,662 0,0 z m -2907,-774 0,0 z m 3001,891 0,0 z" style="fill:#02d35f;stroke:none"/></g></g><g id="g168" class="com.sun.star.drawing.CustomShape"><g id="id4"><rect id="rect171" width="197" height="196" x="17053" y="6651" class="BoundingBox" style="fill:none;stroke:none"/><path id="path173" d="m 17212,6651 0,0 c -123,0 -123,0 -123,0 -24,0 -36,12 -36,36 0,122 0,122 0,122 0,16 12,32 36,32 123,0 123,0 123,0 16,0 32,-16 32,-32 0,-122 0,-122 0,-122 0,-24 -16,-36 -32,-36 z m -159,0 0,0 z m 196,195 0,0 z" style="fill:#02d35f;stroke:none"/></g></g><g id="g175" class="com.sun.star.drawing.CustomShape"><g id="id5"><rect id="rect178" width="196" height="196" x="16063" y="6651" class="BoundingBox" style="fill:none;stroke:none"/><path id="path180" d="m 16218,6651 0,0 c -116,0 -116,0 -116,0 -24,0 -39,12 -39,36 0,122 0,122 0,122 0,16 15,32 39,32 116,0 116,0 116,0 20,0 36,-16 36,-32 0,-122 0,-122 0,-122 0,-24 -16,-36 -36,-36 z m -155,0 0,0 z m 195,195 0,0 z" style="fill:#02d35f;stroke:none"/></g></g><g id="g182" class="com.sun.star.drawing.CustomShape"><g id="id6"><rect id="rect185" width="196" height="196" x="16729" y="6651" class="BoundingBox" style="fill:none;stroke:none"/><path id="path187" d="m 16884,6651 0,0 c -120,0 -120,0 -120,0 -20,0 -35,12 -35,36 0,122 0,122 0,122 0,16 15,32 35,32 120,0 120,0 120,0 16,0 36,-16 36,-32 0,-122 0,-122 0,-122 0,-24 -20,-36 -36,-36 z m -155,0 0,0 z m 195,195 0,0 z" style="fill:#02d35f;stroke:none"/></g></g><g id="g189" class="com.sun.star.drawing.CustomShape"><g id="id7"><rect id="rect192" width="197" height="196" x="16403" y="6651" class="BoundingBox" style="fill:none;stroke:none"/><path id="path194" d="m 16562,6651 0,0 c -119,0 -119,0 -119,0 -24,0 -40,12 -40,36 0,122 0,122 0,122 0,16 16,32 40,32 119,0 119,0 119,0 20,0 32,-16 32,-32 0,-122 0,-122 0,-122 0,-24 -12,-36 -32,-36 z m -159,0 0,0 z m 196,195 0,0 z" style="fill:#02d35f;stroke:none"/></g></g><g id="g196" class="com.sun.star.drawing.CustomShape"><g id="id8"><rect id="rect199" width="196" height="196" x="15416" y="6651" class="BoundingBox" style="fill:none;stroke:none"/><path id="path201" d="m 15567,6651 0,0 c -116,0 -116,0 -116,0 -20,0 -35,12 -35,36 0,122 0,122 0,122 0,16 15,32 35,32 116,0 116,0 116,0 24,0 40,-16 40,-32 0,-122 0,-122 0,-122 0,-24 -16,-36 -40,-36 z m -151,0 0,0 z m 195,195 0,0 z" style="fill:#02d35f;stroke:none"/></g></g><g id="g203" class="com.sun.star.drawing.CustomShape"><g id="id9"><rect id="rect206" width="394" height="107" x="14877" y="6704" class="BoundingBox" style="fill:none;stroke:none"/><path id="path208" d="m 14877,6805 388,0 0,-101 -388,0 0,101 z m 0,-101 0,0 z m 393,106 0,0 z" style="fill:#02d35f;stroke:none"/></g></g><g id="g210" class="com.sun.star.drawing.CustomShape"><g id="id10"><rect id="rect213" width="196" height="196" x="15741" y="6651" class="BoundingBox" style="fill:none;stroke:none"/><path id="path215" d="m 15893,6651 0,0 c -113,0 -113,0 -113,0 -20,0 -39,12 -39,36 0,122 0,122 0,122 0,16 19,32 39,32 113,0 113,0 113,0 19,0 39,-16 39,-32 0,-122 0,-122 0,-122 0,-24 -20,-36 -39,-36 z m -152,0 0,0 z m 195,195 0,0 z" style="fill:#02d35f;stroke:none"/></g></g><g id="g217" class="com.sun.star.drawing.CustomShape"><g id="id11"><rect id="rect220" width="197" height="196" x="17053" y="6936" class="BoundingBox" style="fill:none;stroke:none"/><path id="path222" d="m 17212,6936 0,0 c -123,0 -123,0 -123,0 -24,0 -36,15 -36,35 0,120 0,120 0,120 0,20 12,36 36,36 123,0 123,0 123,0 16,0 32,-16 32,-36 0,-120 0,-120 0,-120 0,-20 -16,-35 -32,-35 z m -159,0 0,0 z m 196,195 0,0 z" style="fill:#02d35f;stroke:none"/></g></g><g id="g224" class="com.sun.star.drawing.CustomShape"><g id="id12"><rect id="rect227" width="196" height="196" x="16063" y="6936" class="BoundingBox" style="fill:none;stroke:none"/><path id="path229" d="m 16218,6936 0,0 c -116,0 -116,0 -116,0 -24,0 -39,15 -39,35 0,120 0,120 0,120 0,20 15,36 39,36 116,0 116,0 116,0 20,0 36,-16 36,-36 0,-120 0,-120 0,-120 0,-20 -16,-35 -36,-35 z m -155,0 0,0 z m 195,195 0,0 z" style="fill:#02d35f;stroke:none"/></g></g><g id="g231" class="com.sun.star.drawing.CustomShape"><g id="id13"><rect id="rect234" width="196" height="196" x="16729" y="6936" class="BoundingBox" style="fill:none;stroke:none"/><path id="path236" d="m 16884,6936 0,0 c -120,0 -120,0 -120,0 -20,0 -35,15 -35,35 0,120 0,120 0,120 0,20 15,36 35,36 120,0 120,0 120,0 16,0 36,-16 36,-36 0,-120 0,-120 0,-120 0,-20 -20,-35 -36,-35 z m -155,0 0,0 z m 195,195 0,0 z" style="fill:#02d35f;stroke:none"/></g></g><g id="g238" class="com.sun.star.drawing.CustomShape"><g id="id14"><rect id="rect241" width="197" height="196" x="16403" y="6936" class="BoundingBox" style="fill:none;stroke:none"/><path id="path243" d="m 16562,6936 0,0 c -119,0 -119,0 -119,0 -24,0 -40,15 -40,35 0,120 0,120 0,120 0,20 16,36 40,36 119,0 119,0 119,0 20,0 32,-16 32,-36 0,-120 0,-120 0,-120 0,-20 -12,-35 -32,-35 z m -159,0 0,0 z m 196,195 0,0 z" style="fill:#02d35f;stroke:none"/></g></g><g id="g245" class="com.sun.star.drawing.CustomShape"><g id="id15"><rect id="rect248" width="196" height="196" x="15416" y="6936" class="BoundingBox" style="fill:none;stroke:none"/><path id="path250" d="m 15567,6936 0,0 c -116,0 -116,0 -116,0 -20,0 -35,15 -35,35 0,120 0,120 0,120 0,20 15,36 35,36 116,0 116,0 116,0 24,0 40,-16 40,-36 0,-120 0,-120 0,-120 0,-20 -16,-35 -40,-35 z m -151,0 0,0 z m 195,195 0,0 z" style="fill:#02d35f;stroke:none"/></g></g><g id="g252" class="com.sun.star.drawing.CustomShape"><g id="id16"><rect id="rect255" width="196" height="196" x="15741" y="6936" class="BoundingBox" style="fill:none;stroke:none"/><path id="path257" d="m 15893,6936 0,0 c -113,0 -113,0 -113,0 -20,0 -39,15 -39,35 0,120 0,120 0,120 0,20 19,36 39,36 113,0 113,0 113,0 19,0 39,-16 39,-36 0,-120 0,-120 0,-120 0,-20 -20,-35 -39,-35 z m -152,0 0,0 z m 195,195 0,0 z" style="fill:#02d35f;stroke:none"/></g></g></g><g id="g259" class="Group"><g id="g261" class="com.sun.star.drawing.CustomShape"><g id="id17"><rect id="rect264" width="3002" height="3002" x="4523" y="5400" class="BoundingBox" style="fill:none;stroke:none"/><path id="path266" d="m 7271,5695 0,0 c -1555,0 -1555,0 -1555,0 0,-244 0,-244 0,-244 0,-33 -18,-51 -46,-51 -1096,0 -1096,0 -1096,0 -28,0 -51,18 -51,51 0,2898 0,2898 0,2898 0,23 23,47 51,47 1049,0 1049,0 1049,0 47,0 47,0 47,0 683,0 683,0 683,0 14,0 38,-5 42,-19 10,-14 14,-28 10,-37 -94,-441 -94,-441 -94,-441 960,0 960,0 960,0 103,0 248,-117 248,-235 0,-1683 0,-1683 0,-1683 0,-117 -84,-286 -248,-286 l 0,0 z m -1648,2602 0,0 c -1002,0 -1002,0 -1002,0 0,-698 0,-698 0,-698 1002,0 1002,0 1002,0 l 0,698 0,0 z m 0,-801 0,0 c -1002,0 -1002,0 -1002,0 0,-1998 0,-1998 0,-1998 1002,0 1002,0 1002,0 l 0,1998 0,0 z m 93,801 0,0 c 0,-398 0,-398 0,-398 492,0 492,0 492,0 84,398 84,398 84,398 l -576,0 0,0 z m 1700,-633 0,0 c 0,52 -89,136 -145,136 -1026,0 -1026,0 -1026,0 -529,0 -529,0 -529,0 0,-304 0,-304 0,-304 1700,0 1700,0 1700,0 l 0,168 0,0 z m 0,-267 0,0 c -1700,0 -1700,0 -1700,0 0,-1604 0,-1604 0,-1604 1555,0 1555,0 1555,0 107,0 145,132 145,188 l 0,1416 0,0 z m -2893,-1997 0,0 z m 3001,3001 0,0 z" style="fill:#02d35f;stroke:none"/></g></g><g id="g268" class="com.sun.star.drawing.CustomShape"><g id="id18"><rect id="rect271" width="804" height="496" x="4708" y="6495" class="BoundingBox" style="fill:none;stroke:none"/><path id="path273" d="m 4759,6985 0,0 c 695,0 695,0 695,0 28,0 52,-19 52,-46 0,-398 0,-398 0,-398 0,-23 -24,-46 -52,-46 -695,0 -695,0 -695,0 -28,0 -51,23 -51,46 0,398 0,398 0,398 0,27 23,46 51,46 l 0,0 z m 47,-393 0,0 c 602,0 602,0 602,0 0,101 0,101 0,101 -602,0 -602,0 -602,0 l 0,-101 0,0 z m 0,199 0,0 c 602,0 602,0 602,0 0,101 0,101 0,101 -602,0 -602,0 -602,0 l 0,-101 0,0 z m -98,-296 0,0 z m 803,495 0,0 z" style="fill:#02d35f;stroke:none"/></g></g><g id="g275" class="com.sun.star.drawing.CustomShape"><g id="id19"><rect id="rect278" width="122" height="122" x="4851" y="7883" class="BoundingBox" style="fill:none;stroke:none"/><path id="path280" d="m 4907,7999 0,0 c 34,0 60,-22 60,-58 0,-36 -26,-58 -60,-58 -31,0 -56,22 -56,58 0,36 25,58 56,58 z m -56,-116 0,0 z m 121,121 0,0 z" style="fill:#02d35f;stroke:none"/></g></g><g id="g282" class="com.sun.star.drawing.CustomShape"><g id="id20"><rect id="rect285" width="121" height="122" x="5247" y="7883" class="BoundingBox" style="fill:none;stroke:none"/><path id="path287" d="m 5309,7999 0,0 c 31,0 53,-22 53,-58 0,-36 -22,-58 -53,-58 -36,0 -62,22 -62,58 0,36 26,58 62,58 z m -62,-116 0,0 z m 120,121 0,0 z" style="fill:#02d35f;stroke:none"/></g></g></g><g id="g289" class="Group"><g id="g291" class="com.sun.star.drawing.CustomShape"><g id="id21"><rect id="rect294" width="3002" height="892" x="14625" y="17935" class="BoundingBox" style="fill:none;stroke:none"/><path id="path296" d="m 17520,17935 0,0 c -2794,0 -2794,0 -2794,0 -57,0 -101,52 -101,112 0,662 0,662 0,662 0,60 44,112 101,112 2794,0 2794,0 2794,0 57,0 101,-52 101,-112 0,-662 0,-662 0,-662 0,-60 -44,-112 -101,-112 l 0,0 z m 12,774 0,0 c 0,16 -8,28 -12,28 -2794,0 -2794,0 -2794,0 -8,0 -16,-12 -16,-28 0,-662 0,-662 0,-662 0,-16 8,-24 16,-24 2794,0 2794,0 2794,0 4,0 12,8 12,24 l 0,662 0,0 z m -2907,-774 0,0 z m 3001,891 0,0 z" style="fill:#02d35f;stroke:none"/></g></g><g id="g298" class="com.sun.star.drawing.CustomShape"><g id="id22"><rect id="rect301" width="197" height="196" x="17053" y="18131" class="BoundingBox" style="fill:none;stroke:none"/><path id="path303" d="m 17212,18131 0,0 c -123,0 -123,0 -123,0 -24,0 -36,12 -36,36 0,122 0,122 0,122 0,16 12,32 36,32 123,0 123,0 123,0 16,0 32,-16 32,-32 0,-122 0,-122 0,-122 0,-24 -16,-36 -32,-36 z m -159,0 0,0 z m 196,195 0,0 z" style="fill:#02d35f;stroke:none"/></g></g><g id="g305" class="com.sun.star.drawing.CustomShape"><g id="id23"><rect id="rect308" width="196" height="196" x="16063" y="18131" class="BoundingBox" style="fill:none;stroke:none"/><path id="path310" d="m 16218,18131 0,0 c -116,0 -116,0 -116,0 -24,0 -39,12 -39,36 0,122 0,122 0,122 0,16 15,32 39,32 116,0 116,0 116,0 20,0 36,-16 36,-32 0,-122 0,-122 0,-122 0,-24 -16,-36 -36,-36 z m -155,0 0,0 z m 195,195 0,0 z" style="fill:#02d35f;stroke:none"/></g></g><g id="g312" class="com.sun.star.drawing.CustomShape"><g id="id24"><rect id="rect315" width="196" height="196" x="16729" y="18131" class="BoundingBox" style="fill:none;stroke:none"/><path id="path317" d="m 16884,18131 0,0 c -120,0 -120,0 -120,0 -20,0 -35,12 -35,36 0,122 0,122 0,122 0,16 15,32 35,32 120,0 120,0 120,0 16,0 36,-16 36,-32 0,-122 0,-122 0,-122 0,-24 -20,-36 -36,-36 z m -155,0 0,0 z m 195,195 0,0 z" style="fill:#02d35f;stroke:none"/></g></g><g id="g319" class="com.sun.star.drawing.CustomShape"><g id="id25"><rect id="rect322" width="197" height="196" x="16403" y="18131" class="BoundingBox" style="fill:none;stroke:none"/><path id="path324" d="m 16562,18131 0,0 c -119,0 -119,0 -119,0 -24,0 -40,12 -40,36 0,122 0,122 0,122 0,16 16,32 40,32 119,0 119,0 119,0 20,0 32,-16 32,-32 0,-122 0,-122 0,-122 0,-24 -12,-36 -32,-36 z m -159,0 0,0 z m 196,195 0,0 z" style="fill:#02d35f;stroke:none"/></g></g><g id="g326" class="com.sun.star.drawing.CustomShape"><g id="id26"><rect id="rect329" width="196" height="196" x="15416" y="18131" class="BoundingBox" style="fill:none;stroke:none"/><path id="path331" d="m 15567,18131 0,0 c -116,0 -116,0 -116,0 -20,0 -35,12 -35,36 0,122 0,122 0,122 0,16 15,32 35,32 116,0 116,0 116,0 24,0 40,-16 40,-32 0,-122 0,-122 0,-122 0,-24 -16,-36 -40,-36 z m -151,0 0,0 z m 195,195 0,0 z" style="fill:#02d35f;stroke:none"/></g></g><g id="g333" class="com.sun.star.drawing.CustomShape"><g id="id27"><rect id="rect336" width="394" height="107" x="14877" y="18184" class="BoundingBox" style="fill:none;stroke:none"/><path id="path338" d="m 14877,18285 388,0 0,-101 -388,0 0,101 z m 0,-101 0,0 z m 393,106 0,0 z" style="fill:#02d35f;stroke:none"/></g></g><g id="g340" class="com.sun.star.drawing.CustomShape"><g id="id28"><rect id="rect343" width="196" height="196" x="15741" y="18131" class="BoundingBox" style="fill:none;stroke:none"/><path id="path345" d="m 15893,18131 0,0 c -113,0 -113,0 -113,0 -20,0 -39,12 -39,36 0,122 0,122 0,122 0,16 19,32 39,32 113,0 113,0 113,0 19,0 39,-16 39,-32 0,-122 0,-122 0,-122 0,-24 -20,-36 -39,-36 z m -152,0 0,0 z m 195,195 0,0 z" style="fill:#02d35f;stroke:none"/></g></g><g id="g347" class="com.sun.star.drawing.CustomShape"><g id="id29"><rect id="rect350" width="197" height="196" x="17053" y="18416" class="BoundingBox" style="fill:none;stroke:none"/><path id="path352" d="m 17212,18416 0,0 c -123,0 -123,0 -123,0 -24,0 -36,15 -36,35 0,120 0,120 0,120 0,20 12,36 36,36 123,0 123,0 123,0 16,0 32,-16 32,-36 0,-120 0,-120 0,-120 0,-20 -16,-35 -32,-35 z m -159,0 0,0 z m 196,195 0,0 z" style="fill:#02d35f;stroke:none"/></g></g><g id="g354" class="com.sun.star.drawing.CustomShape"><g id="id30"><rect id="rect357" width="196" height="196" x="16063" y="18416" class="BoundingBox" style="fill:none;stroke:none"/><path id="path359" d="m 16218,18416 0,0 c -116,0 -116,0 -116,0 -24,0 -39,15 -39,35 0,120 0,120 0,120 0,20 15,36 39,36 116,0 116,0 116,0 20,0 36,-16 36,-36 0,-120 0,-120 0,-120 0,-20 -16,-35 -36,-35 z m -155,0 0,0 z m 195,195 0,0 z" style="fill:#02d35f;stroke:none"/></g></g><g id="g361" class="com.sun.star.drawing.CustomShape"><g id="id31"><rect id="rect364" width="196" height="196" x="16729" y="18416" class="BoundingBox" style="fill:none;stroke:none"/><path id="path366" d="m 16884,18416 0,0 c -120,0 -120,0 -120,0 -20,0 -35,15 -35,35 0,120 0,120 0,120 0,20 15,36 35,36 120,0 120,0 120,0 16,0 36,-16 36,-36 0,-120 0,-120 0,-120 0,-20 -20,-35 -36,-35 z m -155,0 0,0 z m 195,195 0,0 z" style="fill:#02d35f;stroke:none"/></g></g><g id="g368" class="com.sun.star.drawing.CustomShape"><g id="id32"><rect id="rect371" width="197" height="196" x="16403" y="18416" class="BoundingBox" style="fill:none;stroke:none"/><path id="path373" d="m 16562,18416 0,0 c -119,0 -119,0 -119,0 -24,0 -40,15 -40,35 0,120 0,120 0,120 0,20 16,36 40,36 119,0 119,0 119,0 20,0 32,-16 32,-36 0,-120 0,-120 0,-120 0,-20 -12,-35 -32,-35 z m -159,0 0,0 z m 196,195 0,0 z" style="fill:#02d35f;stroke:none"/></g></g><g id="g375" class="com.sun.star.drawing.CustomShape"><g id="id33"><rect id="rect378" width="196" height="196" x="15416" y="18416" class="BoundingBox" style="fill:none;stroke:none"/><path id="path380" d="m 15567,18416 0,0 c -116,0 -116,0 -116,0 -20,0 -35,15 -35,35 0,120 0,120 0,120 0,20 15,36 35,36 116,0 116,0 116,0 24,0 40,-16 40,-36 0,-120 0,-120 0,-120 0,-20 -16,-35 -40,-35 z m -151,0 0,0 z m 195,195 0,0 z" style="fill:#02d35f;stroke:none"/></g></g><g id="g382" class="com.sun.star.drawing.CustomShape"><g id="id34"><rect id="rect385" width="196" height="196" x="15741" y="18416" class="BoundingBox" style="fill:none;stroke:none"/><path id="path387" d="m 15893,18416 0,0 c -113,0 -113,0 -113,0 -20,0 -39,15 -39,35 0,120 0,120 0,120 0,20 19,36 39,36 113,0 113,0 113,0 19,0 39,-16 39,-36 0,-120 0,-120 0,-120 0,-20 -20,-35 -39,-35 z m -152,0 0,0 z m 195,195 0,0 z" style="fill:#02d35f;stroke:none"/></g></g></g><g id="g389" class="com.sun.star.drawing.CustomShape"><g id="id35"><rect id="rect392" width="3002" height="1742" x="14625" y="11061" class="BoundingBox" style="fill:none;stroke:none"/><path id="path394" d="m 16951,11473 0,0 c -59,0 -115,11 -174,26 -104,-262 -356,-438 -637,-438 -334,0 -611,239 -671,559 -78,-29 -148,-44 -226,-44 -341,0 -618,276 -618,611 0,305 229,563 537,607 1845,4 1845,4 1845,4 344,-26 615,-317 615,-659 0,-368 -300,-666 -671,-666 l 0,0 z m 52,1240 0,0 c -1838,-4 -1838,-4 -1838,-4 -259,-36 -455,-261 -455,-522 0,-291 241,-527 533,-527 82,0 163,23 241,59 15,11 30,11 41,0 11,-7 18,-18 22,-33 30,-305 285,-537 593,-537 259,0 489,165 567,419 3,8 14,19 26,23 7,7 22,7 29,3 67,-22 126,-33 189,-33 326,0 586,261 586,578 0,298 -238,548 -534,574 l 0,0 z m -2378,-1652 0,0 z m 3001,1741 0,0 z" style="fill:#02d35f;stroke:none"/></g></g><g id="g396" class="Group"><g id="g398" class="com.sun.star.drawing.CustomShape"><g id="id36"><rect id="rect401" width="2502" height="3440" x="4773" y="16520" class="BoundingBox" style="fill:none;stroke:none"/><path id="path403" d="m 5019,19953 0,0 c 1996,0 1996,0 1996,0 141,0 253,-110 253,-244 0,-2946 0,-2946 0,-2946 0,-133 -112,-243 -253,-243 -1996,0 -1996,0 -1996,0 -135,0 -246,110 -246,243 0,2946 0,2946 0,2946 0,134 111,244 246,244 l 0,0 z m -123,-3190 0,0 c 0,-64 58,-122 123,-122 1996,0 1996,0 1996,0 71,0 123,58 123,122 0,2946 0,2946 0,2946 0,70 -52,122 -123,122 -1996,0 -1996,0 -1996,0 -65,0 -123,-52 -123,-122 l 0,-2946 0,0 z m -123,-243 0,0 z m 2501,3439 0,0 z" style="fill:#02d35f;stroke:none"/></g></g><g id="g405" class="com.sun.star.drawing.CustomShape"><g id="id37"><rect id="rect408" width="1288" height="125" x="5368" y="17161" class="BoundingBox" style="fill:none;stroke:none"/><path id="path410" d="m 5426,17279 0,0 c 1164,0 1164,0 1164,0 29,0 59,-23 59,-56 0,-34 -30,-62 -59,-62 -1164,0 -1164,0 -1164,0 -35,0 -58,28 -58,62 0,33 23,56 58,56 z m -58,-118 0,0 z m 1287,124 0,0 z" style="fill:#02d35f;stroke:none"/></g></g><g id="g412" class="com.sun.star.drawing.CustomShape"><g id="id38"><rect id="rect415" width="437" height="125" x="6398" y="20118" class="BoundingBox" style="fill:none;stroke:none"/><path id="path417" d="m 6828,20179 0,0 c 0,-34 -34,-61 -68,-61 -306,0 -306,0 -306,0 -34,0 -56,27 -56,61 0,28 22,56 56,56 306,0 306,0 306,0 34,0 68,-28 68,-56 z m -430,-61 0,0 z m 436,123 0,0 z" style="fill:#02d35f;stroke:none"/></g></g><g id="g419" class="com.sun.star.drawing.CustomShape"><g id="id39"><rect id="rect422" width="435" height="125" x="5185" y="20118" class="BoundingBox" style="fill:none;stroke:none"/><path id="path424" d="m 5247,20235 0,0 c 304,0 304,0 304,0 39,0 62,-28 62,-56 0,-34 -23,-61 -62,-61 -304,0 -304,0 -304,0 -34,0 -62,27 -62,61 0,28 28,56 62,56 z m -62,-117 0,0 z m 434,123 0,0 z" style="fill:#02d35f;stroke:none"/></g></g><g id="g426" class="com.sun.star.drawing.CustomShape"><g id="id40"><rect id="rect429" width="1288" height="126" x="5368" y="17576" class="BoundingBox" style="fill:none;stroke:none"/><path id="path431" d="m 5426,17695 0,0 c 1164,0 1164,0 1164,0 29,0 59,-29 59,-57 0,-40 -30,-62 -59,-62 -1164,0 -1164,0 -1164,0 -35,0 -58,22 -58,62 0,28 23,57 58,57 z m -58,-119 0,0 z m 1287,125 0,0 z" style="fill:#02d35f;stroke:none"/></g></g><g id="g433" class="com.sun.star.drawing.CustomShape"><g id="id41"><rect id="rect436" width="1288" height="124" x="5368" y="17987" class="BoundingBox" style="fill:none;stroke:none"/><path id="path438" d="m 5426,18104 0,0 c 1164,0 1164,0 1164,0 29,0 59,-28 59,-56 0,-34 -30,-61 -59,-61 -1164,0 -1164,0 -1164,0 -35,0 -58,27 -58,61 0,28 23,56 58,56 z m -58,-117 0,0 z m 1287,123 0,0 z" style="fill:#02d35f;stroke:none"/></g></g></g><g id="g440" class="com.sun.star.drawing.TextShape"><g id="id42"><rect id="rect443" width="5101" height="967" x="3473" y="20329" class="BoundingBox" style="fill:none;stroke:none"/><text id="text445" class="TextShape"><tspan id="tspan447" class="TextParagraph" font-size="529" font-weight="400" style="font-weight:400;font-size:529px;font-family:'Open Sans',sans-serif"><tspan id="tspan449" x="3723" y="21017" class="TextPosition"><tspan id="tspan451" style="fill:#000;stroke:none">Machine 1 (Server)</tspan></tspan></tspan></text></g></g><g id="g453" class="com.sun.star.drawing.TextShape"><g id="id43"><rect id="rect456" width="4001" height="967" x="14125" y="19000" class="BoundingBox" style="fill:none;stroke:none"/><text id="text458" class="TextShape"><tspan id="tspan460" class="TextParagraph" font-size="529" font-weight="400" style="font-weight:400;font-size:529px;font-family:'Open Sans',sans-serif"><tspan id="tspan462" x="14375" y="19688" class="TextPosition"><tspan id="tspan464" style="fill:#000;stroke:none">Switch/Router</tspan></tspan></tspan></text></g></g><g id="g466" class="com.sun.star.drawing.ConnectorShape"><g id="id44"><rect id="rect469" width="7380" height="381" x="7246" y="18190" class="BoundingBox" style="fill:none;stroke:none"/><path id="path471" d="m 7273,18380 6809,0" style="fill:none;stroke:#000;stroke-width:53;stroke-linejoin:round"/><path id="path473" d="m 14625,18380 -568,-189 0,379 568,-190 z" style="fill:#000;stroke:none"/></g></g><g id="g475" class="com.sun.star.drawing.TextShape"><g id="id45"><rect id="rect478" width="1676" height="967" x="10025" y="17400" class="BoundingBox" style="fill:none;stroke:none"/><text id="text480" class="TextShape"><tspan id="tspan482" class="TextParagraph" font-size="529" font-weight="400" style="font-weight:400;font-size:529px;font-family:'Open Sans',sans-serif"><tspan id="tspan484" x="10275" y="18088" class="TextPosition"><tspan id="tspan486" style="fill:#000;stroke:none">eth0</tspan></tspan></tspan></text></g></g><g id="g488" class="com.sun.star.drawing.TextShape"><g id="id46"><rect id="rect491" width="6344" height="967" x="2852" y="15429" class="BoundingBox" style="fill:none;stroke:none"/><text id="text493" class="TextShape"><tspan id="tspan495" class="TextParagraph" font-size="529" font-weight="400" style="font-weight:400;font-size:529px;font-family:'Open Sans',sans-serif"><tspan id="tspan497" x="3102" y="16117" class="TextPosition"><tspan id="tspan499" style="fill:#000;stroke:none">tap0 (192.168.100.1/24)</tspan></tspan></tspan></text></g></g><g id="g501" class="com.sun.star.drawing.TextShape"><g id="id47"><rect id="rect504" width="5101" height="967" x="3473" y="4329" class="BoundingBox" style="fill:none;stroke:none"/><text id="text506" class="TextShape"><tspan id="tspan508" class="TextParagraph" font-size="529" font-weight="400" style="font-weight:400;font-size:529px;font-family:'Open Sans',sans-serif"><tspan id="tspan510" x="3723" y="5017" class="TextPosition"><tspan id="tspan512" style="fill:#000;stroke:none">Machine 2 (Client)</tspan></tspan></tspan></text></g></g><g id="g514" class="com.sun.star.drawing.TextShape"><g id="id48"><rect id="rect517" width="6301" height="967" x="2873" y="8500" class="BoundingBox" style="fill:none;stroke:none"/><text id="text519" class="TextShape"><tspan id="tspan521" class="TextParagraph" font-size="529" font-weight="400" style="font-weight:400;font-size:529px;font-family:'Open Sans',sans-serif"><tspan id="tspan523" x="3123" y="9188" class="TextPosition"><tspan id="tspan525" style="fill:#000;stroke:none">tap0 (192.168.100.2/24)</tspan></tspan></tspan></text></g></g><g id="g527" class="com.sun.star.drawing.ConnectorShape"><g id="id49"><rect id="rect530" width="7130" height="381" x="7496" y="6710" class="BoundingBox" style="fill:none;stroke:none"/><path id="path532" d="m 7523,6900 6559,0" style="fill:none;stroke:#000;stroke-width:53;stroke-linejoin:round"/><path id="path534" d="m 14625,6900 -568,-189 0,379 568,-190 z" style="fill:#000;stroke:none"/></g></g><g id="g536" class="com.sun.star.drawing.TextShape"><g id="id50"><rect id="rect539" width="1676" height="967" x="10026" y="5936" class="BoundingBox" style="fill:none;stroke:none"/><text id="text541" class="TextShape"><tspan id="tspan543" class="TextParagraph" font-size="529" font-weight="400" style="font-weight:400;font-size:529px;font-family:'Open Sans',sans-serif"><tspan id="tspan545" x="10276" y="6624" class="TextPosition"><tspan id="tspan547" style="fill:#000;stroke:none">eth0</tspan></tspan></tspan></text></g></g><g id="g549" class="com.sun.star.drawing.TextShape"><g id="id51"><rect id="rect552" width="2501" height="967" x="14875" y="11636" class="BoundingBox" style="fill:none;stroke:none"/><text id="text554" class="TextShape"><tspan id="tspan556" class="TextParagraph" font-size="529" font-weight="400" style="font-weight:400;font-size:529px;font-family:'Open Sans',sans-serif"><tspan id="tspan558" x="15125" y="12324" class="TextPosition"><tspan id="tspan560" style="fill:#000;stroke:none">Internet</tspan></tspan></tspan></text></g></g><g id="g562" class="com.sun.star.drawing.ConnectorShape"><g id="id52"><rect id="rect565" width="55" height="3771" x="16098" y="7318" class="BoundingBox" style="fill:none;stroke:none"/><path id="path567" d="m 16125,7345 0,3716" style="fill:none;stroke:#000;stroke-width:53;stroke-linejoin:round"/></g></g><g id="g569" class="com.sun.star.drawing.ConnectorShape"><g id="id53"><rect id="rect572" width="55" height="5189" x="16098" y="12774" class="BoundingBox" style="fill:none;stroke:none"/><path id="path574" d="m 16125,12801 0,5134" style="fill:none;stroke:#000;stroke-width:53;stroke-linejoin:round"/></g></g><g id="g576" class="com.sun.star.drawing.ConnectorShape"><g id="id54"><rect id="rect579" width="55" height="6018" x="5996" y="9439" class="BoundingBox" style="fill:none;stroke:none"/><path id="path581" d="m 6023,15429 0,-5963" style="fill:none;stroke:#000;stroke-width:53;stroke-linejoin:round"/></g></g><g id="g583" class="com.sun.star.drawing.TextShape"><g id="id55"><rect id="rect586" width="4201" height="1111" x="6300" y="12200" class="BoundingBox" style="fill:none;stroke:none"/><text id="text588" class="TextShape"><tspan id="tspan590" class="TextParagraph" font-size="635" font-weight="700" style="font-weight:700;font-size:635px;font-family:'Open Sans',sans-serif"><tspan id="tspan592" x="6550" y="13002" class="TextPosition"><tspan id="tspan594" style="fill:#000;stroke:none">VPN Bridge</tspan></tspan></tspan></text></g></g><g id="g596" class="com.sun.star.drawing.TextShape"><g id="id56"><rect id="rect599" width="4001" height="967" x="14125" y="5300" class="BoundingBox" style="fill:none;stroke:none"/><text id="text601" class="TextShape"><tspan id="tspan603" class="TextParagraph" font-size="529" font-weight="400" style="font-weight:400;font-size:529px;font-family:'Open Sans',sans-serif"><tspan id="tspan605" x="14375" y="5988" class="TextPosition"><tspan id="tspan607" style="fill:#000;stroke:none">Switch/Router</tspan></tspan></tspan></text></g></g></g></g></g></g></g></svg>